<?xml version="1.0" encoding="utf-8"?>
<!-- Generator: Adobe Illustrator 25.0.1, SVG Export Plug-In . SVG Version: 6.00 Build 0)  -->
<svg version="1.1" id="Layer_1" xmlns="http://www.w3.org/2000/svg" xmlns:xlink="http://www.w3.org/1999/xlink" x="0px" y="0px"
	 viewBox="0 0 105.2 19.4" style="enable-background:new 0 0 105.2 19.4;" xml:space="preserve">
<style type="text/css">
	.st0{fill:#FFFFFF;}
</style>
<g id="그룹_3065" transform="translate(-557.954 -308.729)">
	<g id="그룹_3060" transform="translate(557.954 308.729)">
		<path id="패스_5067" class="st0" d="M5.9,15.4l-0.5,1.3C5,18,4.2,18.6,3.2,18.6c-0.8,0.1-1.7-0.3-2.2-0.9
			c-0.4-0.5-0.6-1.1-0.7-1.7c0-0.5,0.1-1,0.3-1.5L6.1,2.6C6.6,1.3,8,0.5,9.4,1c0.8,0.3,1.4,0.9,1.7,1.7l5.4,11.8
			c0.2,0.5,0.3,1,0.3,1.5c0,0.6-0.3,1.2-0.6,1.7c-0.5,0.7-1.4,1-2.2,0.9c-1,0-1.8-0.6-2.2-1.8l-0.5-1.3H5.9z M9.7,11.2L8.6,8.2
			l-1.1,3.1H9.7z"/>
		<path id="패스_5068" class="st0" d="M28.7,8.7V3.1c0-1.5,0.9-2.3,2.6-2.3c1.7,0,2.6,0.8,2.6,2.3v13.2c0,1.5-0.9,2.3-2.6,2.3
			c-0.9,0-1.7-0.3-2.3-1l-5.8-6.9v5.6c0,1.5-0.9,2.3-2.6,2.3c-1.7,0-2.6-0.8-2.6-2.3V3.1c0-1.5,0.9-2.3,2.6-2.3
			c0.9-0.1,1.8,0.3,2.4,1.1L28.7,8.7z"/>
		<path id="패스_5069" class="st0" d="M43.4,6.5l2.9-3.8C46.9,1.7,48,1,49.1,1c0.8-0.1,1.6,0.2,2.1,0.8c0.3,0.4,0.5,1,0.5,1.5
			c0,0.6-0.2,1.1-0.5,1.6l-5.4,7v4.3c0,1.5-0.9,2.3-2.6,2.3c-1.7,0-2.6-0.8-2.6-2.3v-4.3l-5.3-7C35.2,4.5,35,3.9,35,3.3
			c0-0.5,0.2-1.1,0.5-1.5c0.5-0.6,1.3-1,2.1-0.8c1.2,0.1,2.2,0.7,2.8,1.7L43.4,6.5z"/>
		<path id="패스_5070" class="st0" d="M61.5,6.3l3.6-4.4c0.6-0.7,1.5-1.1,2.4-1.1c1.7,0,2.6,0.8,2.6,2.3v13.2
			c0,1.5-0.9,2.3-2.6,2.3c-1.7,0-2.6-0.8-2.6-2.3V9l-3.5,4.1l-3.5-4v7.2c0,1.5-0.9,2.3-2.6,2.3c-1.7,0-2.6-0.8-2.6-2.3V3.1
			c0-1.5,0.9-2.3,2.6-2.3c0.9,0,1.8,0.4,2.4,1.1L61.5,6.3z"/>
		<path id="패스_5071" class="st0" d="M76.8,15.4l-0.5,1.3c-0.4,1.2-1.2,1.8-2.2,1.8c-0.8,0.1-1.7-0.3-2.2-0.9
			c-0.4-0.5-0.6-1.1-0.7-1.7c0-0.5,0.1-1,0.3-1.5L77,2.6C77.5,1.3,79,0.5,80.3,1c0.8,0.3,1.4,0.9,1.7,1.7l5.4,11.8
			c0.2,0.5,0.3,1,0.3,1.5c0,0.6-0.3,1.2-0.6,1.7c-0.5,0.7-1.4,1-2.2,0.9c-1,0-1.8-0.6-2.2-1.8l-0.5-1.3H76.8z M80.7,11.2l-1.1-3.1
			l-1.1,3.1H80.7z"/>
		<path id="패스_5072" class="st0" d="M99.6,8.7V3.1c0-1.5,0.9-2.3,2.6-2.3c1.7,0,2.6,0.8,2.6,2.3v13.2c0,1.5-0.9,2.3-2.6,2.3
			c-0.9,0-1.7-0.3-2.3-1l-5.8-6.9v5.6c0,1.5-0.9,2.3-2.6,2.3c-1.7,0-2.6-0.8-2.6-2.3V3.1c0-1.5,0.9-2.3,2.6-2.3
			c0.9-0.1,1.8,0.3,2.4,1.1L99.6,8.7z"/>
	</g>
</g>
</svg>
